<?xml version="1.0" encoding="UTF-8"?><svg id="Layer_1" xmlns="http://www.w3.org/2000/svg" viewBox="0 0 1006.5 440"><defs><style>.cls-1{fill:#fff;font-family:DINAlternate-Bold, 'DIN Alternate';font-weight:700;}.cls-1,.cls-2{font-size:30px;}.cls-3{letter-spacing:-.01em;}.cls-4{letter-spacing:-.02em;}.cls-5{letter-spacing:-.08em;}.cls-6{fill:none;stroke:#000;stroke-miterlimit:10;stroke-width:2px;}.cls-7{letter-spacing:-.03em;}.cls-8{letter-spacing:-.05em;}.cls-9,.cls-10,.cls-11,.cls-12,.cls-13,.cls-14,.cls-15{stroke-width:0px;}.cls-2{font-family:EightiesComebackVAR-Regular, EightiesComeback_VAR;font-variation-settings:'wght' 400, 'wdth' 100;}.cls-10{fill:#4d4d4d;}.cls-11{fill:#29abe2;}.cls-12{fill:#39b54a;}.cls-13{fill:#b3b3b3;}.cls-14{fill:#ed1c24;}.cls-15{fill:blue;}</style></defs><path class="cls-13" d="m54.16,2h898.18c28.79,0,52.16,23.37,52.16,52.16v331.68c0,28.79-23.37,52.16-52.16,52.16H54.16c-28.79,0-52.16-23.37-52.16-52.16V54.16C2,25.37,25.37,2,54.16,2Z"/><path class="cls-9" d="m952.34,4c27.66,0,50.16,22.5,50.16,50.16v331.68c0,27.66-22.5,50.16-50.16,50.16H54.16c-27.66,0-50.16-22.5-50.16-50.16V54.16C4,26.5,26.5,4,54.16,4h898.18m0-4H54.16C24.25,0,0,24.25,0,54.16v331.68c0,29.91,24.25,54.16,54.16,54.16h898.18c29.91,0,54.16-24.25,54.16-54.16V54.16c0-29.91-24.25-54.16-54.16-54.16h0Z"/><rect class="cls-10" x="10.5" y="293" width="129" height="56" rx="11.3" ry="11.3"/><path class="cls-9" d="m128.2,294c5.68,0,10.3,4.62,10.3,10.3v33.41c0,5.68-4.62,10.3-10.3,10.3H21.8c-5.68,0-10.3-4.62-10.3-10.3v-33.41c0-5.68,4.62-10.3,10.3-10.3h106.41m0-2H21.8c-6.79,0-12.3,5.51-12.3,12.3v33.41c0,6.79,5.51,12.3,12.3,12.3h106.41c6.79,0,12.3-5.51,12.3-12.3v-33.41c0-6.79-5.51-12.3-12.3-12.3h0Z"/><rect class="cls-10" x="857.5" y="293" width="138" height="56" rx="11.3" ry="11.3"/><path class="cls-9" d="m984.2,294c5.68,0,10.3,4.62,10.3,10.3v33.41c0,5.68-4.62,10.3-10.3,10.3h-115.41c-5.68,0-10.3-4.62-10.3-10.3v-33.41c0-5.68,4.62-10.3,10.3-10.3h115.41m0-2h-115.41c-6.79,0-12.3,5.51-12.3,12.3v33.41c0,6.79,5.51,12.3,12.3,12.3h115.41c6.79,0,12.3-5.51,12.3-12.3v-33.41c0-6.79-5.51-12.3-12.3-12.3h0Z"/><rect class="cls-11" x="155.04" y="293" width="56" height="56" rx="11.3" ry="11.3"/><path class="cls-9" d="m199.74,294c5.68,0,10.3,4.62,10.3,10.3v33.41c0,5.68-4.62,10.3-10.3,10.3h-33.41c-5.68,0-10.3-4.62-10.3-10.3v-33.41c0-5.68,4.62-10.3,10.3-10.3h33.41m0-2h-33.41c-6.79,0-12.3,5.51-12.3,12.3v33.41c0,6.79,5.51,12.3,12.3,12.3h33.41c6.79,0,12.3-5.51,12.3-12.3v-33.41c0-6.79-5.51-12.3-12.3-12.3h0Z"/><rect class="cls-11" x="225.81" y="293" width="56" height="56" rx="11.3" ry="11.3"/><path class="cls-9" d="m270.51,294c5.68,0,10.3,4.62,10.3,10.3v33.41c0,5.68-4.62,10.3-10.3,10.3h-33.41c-5.68,0-10.3-4.62-10.3-10.3v-33.41c0-5.68,4.62-10.3,10.3-10.3h33.41m0-2h-33.41c-6.79,0-12.3,5.51-12.3,12.3v33.41c0,6.79,5.51,12.3,12.3,12.3h33.41c6.79,0,12.3-5.51,12.3-12.3v-33.41c0-6.79-5.51-12.3-12.3-12.3h0Z"/><rect class="cls-11" x="296.58" y="293" width="56" height="56" rx="11.3" ry="11.3"/><path class="cls-9" d="m341.28,294c5.68,0,10.3,4.62,10.3,10.3v33.41c0,5.68-4.62,10.3-10.3,10.3h-33.41c-5.68,0-10.3-4.62-10.3-10.3v-33.41c0-5.68,4.62-10.3,10.3-10.3h33.41m0-2h-33.41c-6.79,0-12.3,5.51-12.3,12.3v33.41c0,6.79,5.51,12.3,12.3,12.3h33.41c6.79,0,12.3-5.51,12.3-12.3v-33.41c0-6.79-5.51-12.3-12.3-12.3h0Z"/><rect class="cls-11" x="367.35" y="293" width="56" height="56" rx="11.3" ry="11.3"/><path class="cls-9" d="m412.05,294c5.68,0,10.3,4.62,10.3,10.3v33.41c0,5.68-4.62,10.3-10.3,10.3h-33.41c-5.68,0-10.3-4.62-10.3-10.3v-33.41c0-5.68,4.62-10.3,10.3-10.3h33.41m0-2h-33.41c-6.79,0-12.3,5.51-12.3,12.3v33.41c0,6.79,5.51,12.3,12.3,12.3h33.41c6.79,0,12.3-5.51,12.3-12.3v-33.41c0-6.79-5.51-12.3-12.3-12.3h0Z"/><rect class="cls-11" x="438.12" y="293" width="56" height="56" rx="11.3" ry="11.3"/><path class="cls-9" d="m482.82,294c5.68,0,10.3,4.62,10.3,10.3v33.41c0,5.68-4.62,10.3-10.3,10.3h-33.41c-5.68,0-10.3-4.62-10.3-10.3v-33.41c0-5.68,4.62-10.3,10.3-10.3h33.41m0-2h-33.41c-6.79,0-12.3,5.51-12.3,12.3v33.41c0,6.79,5.51,12.3,12.3,12.3h33.41c6.79,0,12.3-5.51,12.3-12.3v-33.41c0-6.79-5.51-12.3-12.3-12.3h0Z"/><rect class="cls-10" x="297.5" y="369" width="338" height="56" rx="11.3" ry="11.3"/><path class="cls-9" d="m624.2,370c5.68,0,10.3,4.62,10.3,10.3v33.41c0,5.68-4.62,10.3-10.3,10.3h-315.41c-5.68,0-10.3-4.62-10.3-10.3v-33.41c0-5.68,4.62-10.3,10.3-10.3h315.41m0-2h-315.41c-6.79,0-12.3,5.51-12.3,12.3v33.41c0,6.79,5.51,12.3,12.3,12.3h315.41c6.79,0,12.3-5.51,12.3-12.3v-33.41c0-6.79-5.51-12.3-12.3-12.3h0Z"/><rect class="cls-11" x="508.88" y="293" width="56" height="56" rx="11.3" ry="11.3"/><path class="cls-9" d="m553.59,294c5.68,0,10.3,4.62,10.3,10.3v33.41c0,5.68-4.62,10.3-10.3,10.3h-33.41c-5.68,0-10.3-4.62-10.3-10.3v-33.41c0-5.68,4.62-10.3,10.3-10.3h33.41m0-2h-33.41c-6.79,0-12.3,5.51-12.3,12.3v33.41c0,6.79,5.51,12.3,12.3,12.3h33.41c6.79,0,12.3-5.51,12.3-12.3v-33.41c0-6.79-5.51-12.3-12.3-12.3h0Z"/><path class="cls-11" d="m590.95,293h33.41c6.23,0,11.3,5.06,11.3,11.3v33.41c0,6.23-5.06,11.3-11.3,11.3h-33.41c-6.23,0-11.3-5.06-11.3-11.3v-33.41c0-6.24,5.06-11.3,11.3-11.3Z"/><path class="cls-9" d="m624.36,294c5.68,0,10.3,4.62,10.3,10.3v33.41c0,5.68-4.62,10.3-10.3,10.3h-33.41c-5.68,0-10.3-4.62-10.3-10.3v-33.41c0-5.68,4.62-10.3,10.3-10.3h33.41m0-2h-33.41c-6.79,0-12.3,5.51-12.3,12.3v33.41c0,6.79,5.51,12.3,12.3,12.3h33.41c6.79,0,12.3-5.51,12.3-12.3v-33.41c0-6.79-5.51-12.3-12.3-12.3h0Z"/><path class="cls-11" d="m661.72,293h33.41c6.23,0,11.3,5.06,11.3,11.3v33.41c0,6.24-5.06,11.3-11.3,11.3h-33.41c-6.23,0-11.3-5.06-11.3-11.3v-33.41c0-6.23,5.06-11.3,11.3-11.3Z"/><path class="cls-9" d="m695.13,294c5.68,0,10.3,4.62,10.3,10.3v33.41c0,5.68-4.62,10.3-10.3,10.3h-33.41c-5.68,0-10.3-4.62-10.3-10.3v-33.41c0-5.68,4.62-10.3,10.3-10.3h33.41m0-2h-33.41c-6.79,0-12.3,5.51-12.3,12.3v33.41c0,6.79,5.51,12.3,12.3,12.3h33.41c6.79,0,12.3-5.51,12.3-12.3v-33.41c0-6.79-5.51-12.3-12.3-12.3h0Z"/><rect class="cls-11" x="721.19" y="293" width="56" height="56" rx="11.3" ry="11.3"/><path class="cls-9" d="m765.9,294c5.68,0,10.3,4.62,10.3,10.3v33.41c0,5.68-4.62,10.3-10.3,10.3h-33.41c-5.68,0-10.3-4.62-10.3-10.3v-33.41c0-5.68,4.62-10.3,10.3-10.3h33.41m0-2h-33.41c-6.79,0-12.3,5.51-12.3,12.3v33.41c0,6.79,5.51,12.3,12.3,12.3h33.41c6.79,0,12.3-5.51,12.3-12.3v-33.41c0-6.79-5.51-12.3-12.3-12.3h0Z"/><rect class="cls-10" x="650.5" y="369" width="75" height="56" rx="11.3" ry="11.3"/><path class="cls-9" d="m714.2,370c5.68,0,10.3,4.62,10.3,10.3v33.41c0,5.68-4.62,10.3-10.3,10.3h-52.41c-5.68,0-10.3-4.62-10.3-10.3v-33.41c0-5.68,4.62-10.3,10.3-10.3h52.41m0-2h-52.41c-6.79,0-12.3,5.51-12.3,12.3v33.41c0,6.79,5.51,12.3,12.3,12.3h52.41c6.79,0,12.3-5.51,12.3-12.3v-33.41c0-6.79-5.51-12.3-12.3-12.3h0Z"/><path class="cls-10" d="m803.26,293h33.41c6.23,0,11.3,5.06,11.3,11.3v33.41c0,6.23-5.06,11.3-11.3,11.3h-33.41c-6.23,0-11.3-5.06-11.3-11.3v-33.41c0-6.24,5.06-11.3,11.3-11.3Z"/><path class="cls-9" d="m836.67,294c5.68,0,10.3,4.62,10.3,10.3v33.41c0,5.68-4.62,10.3-10.3,10.3h-33.41c-5.68,0-10.3-4.62-10.3-10.3v-33.41c0-5.68,4.62-10.3,10.3-10.3h33.41m0-2h-33.41c-6.79,0-12.3,5.51-12.3,12.3v33.41c0,6.79,5.51,12.3,12.3,12.3h33.41c6.79,0,12.3-5.51,12.3-12.3v-33.41c0-6.79-5.51-12.3-12.3-12.3h0Z"/><rect class="cls-12" x="91.04" y="143" width="56" height="56" rx="11.3" ry="11.3"/><path class="cls-9" d="m135.74,144c5.68,0,10.3,4.62,10.3,10.3v33.41c0,5.68-4.62,10.3-10.3,10.3h-33.41c-5.68,0-10.3-4.62-10.3-10.3v-33.41c0-5.68,4.62-10.3,10.3-10.3h33.41m0-2h-33.41c-6.79,0-12.3,5.51-12.3,12.3v33.41c0,6.79,5.51,12.3,12.3,12.3h33.41c6.79,0,12.3-5.51,12.3-12.3v-33.41c0-6.79-5.51-12.3-12.3-12.3h0Z"/><rect class="cls-10" x="10.5" y="143" width="69" height="56" rx="11.3" ry="11.3"/><path class="cls-9" d="m68.2,144c5.68,0,10.3,4.62,10.3,10.3v33.41c0,5.68-4.62,10.3-10.3,10.3H21.8c-5.68,0-10.3-4.62-10.3-10.3v-33.41c0-5.68,4.62-10.3,10.3-10.3h46.41m0-2H21.8c-6.79,0-12.3,5.51-12.3,12.3v33.41c0,6.79,5.51,12.3,12.3,12.3h46.41c6.79,0,12.3-5.51,12.3-12.3v-33.41c0-6.79-5.51-12.3-12.3-12.3h0Z"/><rect class="cls-10" x="10.5" y="214" width="82" height="56" rx="11.3" ry="11.3"/><path class="cls-9" d="m81.2,215c5.68,0,10.3,4.62,10.3,10.3v33.41c0,5.68-4.62,10.3-10.3,10.3H21.8c-5.68,0-10.3-4.62-10.3-10.3v-33.41c0-5.68,4.62-10.3,10.3-10.3h59.41m0-2H21.8c-6.79,0-12.3,5.51-12.3,12.3v33.41c0,6.79,5.51,12.3,12.3,12.3h59.41c6.79,0,12.3-5.51,12.3-12.3v-33.41c0-6.79-5.51-12.3-12.3-12.3h0Z"/><rect class="cls-12" x="161.81" y="143" width="56" height="56" rx="11.3" ry="11.3"/><path class="cls-9" d="m206.51,144c5.68,0,10.3,4.62,10.3,10.3v33.41c0,5.68-4.62,10.3-10.3,10.3h-33.41c-5.68,0-10.3-4.62-10.3-10.3v-33.41c0-5.68,4.62-10.3,10.3-10.3h33.41m0-2h-33.41c-6.79,0-12.3,5.51-12.3,12.3v33.41c0,6.79,5.51,12.3,12.3,12.3h33.41c6.79,0,12.3-5.51,12.3-12.3v-33.41c0-6.79-5.51-12.3-12.3-12.3h0Z"/><rect class="cls-12" x="232.58" y="143" width="56" height="56" rx="11.3" ry="11.3"/><path class="cls-9" d="m277.28,144c5.68,0,10.3,4.62,10.3,10.3v33.41c0,5.68-4.62,10.3-10.3,10.3h-33.41c-5.68,0-10.3-4.62-10.3-10.3v-33.41c0-5.68,4.62-10.3,10.3-10.3h33.41m0-2h-33.41c-6.79,0-12.3,5.51-12.3,12.3v33.41c0,6.79,5.51,12.3,12.3,12.3h33.41c6.79,0,12.3-5.51,12.3-12.3v-33.41c0-6.79-5.51-12.3-12.3-12.3h0Z"/><rect class="cls-12" x="303.35" y="143" width="56" height="56" rx="11.3" ry="11.3"/><path class="cls-9" d="m348.05,144c5.68,0,10.3,4.62,10.3,10.3v33.41c0,5.68-4.62,10.3-10.3,10.3h-33.41c-5.68,0-10.3-4.62-10.3-10.3v-33.41c0-5.68,4.62-10.3,10.3-10.3h33.41m0-2h-33.41c-6.79,0-12.3,5.51-12.3,12.3v33.41c0,6.79,5.51,12.3,12.3,12.3h33.41c6.79,0,12.3-5.51,12.3-12.3v-33.41c0-6.79-5.51-12.3-12.3-12.3h0Z"/><rect class="cls-10" x="374.12" y="143" width="56" height="56" rx="11.3" ry="11.3"/><path class="cls-9" d="m418.82,144c5.68,0,10.3,4.62,10.3,10.3v33.41c0,5.68-4.62,10.3-10.3,10.3h-33.41c-5.68,0-10.3-4.62-10.3-10.3v-33.41c0-5.68,4.62-10.3,10.3-10.3h33.41m0-2h-33.41c-6.79,0-12.3,5.51-12.3,12.3v33.41c0,6.79,5.51,12.3,12.3,12.3h33.41c6.79,0,12.3-5.51,12.3-12.3v-33.41c0-6.79-5.51-12.3-12.3-12.3h0Z"/><rect class="cls-10" x="444.88" y="143" width="56" height="56" rx="11.3" ry="11.3"/><path class="cls-9" d="m489.59,144c5.68,0,10.3,4.62,10.3,10.3v33.41c0,5.68-4.62,10.3-10.3,10.3h-33.41c-5.68,0-10.3-4.62-10.3-10.3v-33.41c0-5.68,4.62-10.3,10.3-10.3h33.41m0-2h-33.41c-6.79,0-12.3,5.51-12.3,12.3v33.41c0,6.79,5.51,12.3,12.3,12.3h33.41c6.79,0,12.3-5.51,12.3-12.3v-33.41c0-6.79-5.51-12.3-12.3-12.3h0Z"/><rect class="cls-10" x="515.65" y="143" width="56" height="56" rx="11.3" ry="11.3"/><path class="cls-9" d="m560.36,144c5.68,0,10.3,4.62,10.3,10.3v33.41c0,5.68-4.62,10.3-10.3,10.3h-33.41c-5.68,0-10.3-4.62-10.3-10.3v-33.41c0-5.68,4.62-10.3,10.3-10.3h33.41m0-2h-33.41c-6.79,0-12.3,5.51-12.3,12.3v33.41c0,6.79,5.51,12.3,12.3,12.3h33.41c6.79,0,12.3-5.51,12.3-12.3v-33.41c0-6.79-5.51-12.3-12.3-12.3h0Z"/><path class="cls-10" d="m597.72,143h33.41c6.24,0,11.3,5.06,11.3,11.3v33.4c0,6.24-5.06,11.3-11.3,11.3h-33.4c-6.24,0-11.3-5.06-11.3-11.3v-33.41c0-6.23,5.06-11.3,11.3-11.3Z"/><path class="cls-9" d="m631.13,144c5.68,0,10.3,4.62,10.3,10.3v33.41c0,5.68-4.62,10.3-10.3,10.3h-33.41c-5.68,0-10.3-4.62-10.3-10.3v-33.41c0-5.68,4.62-10.3,10.3-10.3h33.41m0-2h-33.41c-6.79,0-12.3,5.51-12.3,12.3v33.41c0,6.79,5.51,12.3,12.3,12.3h33.41c6.79,0,12.3-5.51,12.3-12.3v-33.41c0-6.79-5.51-12.3-12.3-12.3h0Z"/><rect class="cls-10" x="657.19" y="143" width="56" height="56" rx="11.3" ry="11.3"/><path class="cls-9" d="m701.9,144c5.68,0,10.3,4.62,10.3,10.3v33.41c0,5.68-4.62,10.3-10.3,10.3h-33.41c-5.68,0-10.3-4.62-10.3-10.3v-33.41c0-5.68,4.62-10.3,10.3-10.3h33.41m0-2h-33.41c-6.79,0-12.3,5.51-12.3,12.3v33.41c0,6.79,5.51,12.3,12.3,12.3h33.41c6.79,0,12.3-5.51,12.3-12.3v-33.41c0-6.79-5.51-12.3-12.3-12.3h0Z"/><rect class="cls-10" x="727.96" y="143" width="56" height="56" rx="11.3" ry="11.3"/><path class="cls-9" d="m772.67,144c5.68,0,10.3,4.62,10.3,10.3v33.41c0,5.68-4.62,10.3-10.3,10.3h-33.41c-5.68,0-10.3-4.62-10.3-10.3v-33.41c0-5.68,4.62-10.3,10.3-10.3h33.41m0-2h-33.41c-6.79,0-12.3,5.51-12.3,12.3v33.41c0,6.79,5.51,12.3,12.3,12.3h33.41c6.79,0,12.3-5.51,12.3-12.3v-33.41c0-6.79-5.51-12.3-12.3-12.3h0Z"/><rect class="cls-10" x="799.5" y="143" width="56" height="56" rx="11.3" ry="11.3"/><path class="cls-9" d="m844.2,144c5.68,0,10.3,4.62,10.3,10.3v33.41c0,5.68-4.62,10.3-10.3,10.3h-33.41c-5.68,0-10.3-4.62-10.3-10.3v-33.41c0-5.68,4.62-10.3,10.3-10.3h33.41m0-2h-33.41c-6.79,0-12.3,5.51-12.3,12.3v33.41c0,6.79,5.51,12.3,12.3,12.3h33.41c6.79,0,12.3-5.51,12.3-12.3v-33.41c0-6.79-5.51-12.3-12.3-12.3h0Z"/><rect class="cls-10" x="870.19" y="143" width="56" height="56" rx="11.3" ry="11.3"/><path class="cls-9" d="m914.9,144c5.68,0,10.3,4.62,10.3,10.3v33.41c0,5.68-4.62,10.3-10.3,10.3h-33.41c-5.68,0-10.3-4.62-10.3-10.3v-33.41c0-5.68,4.62-10.3,10.3-10.3h33.41m0-2h-33.41c-6.79,0-12.3,5.51-12.3,12.3v33.41c0,6.79,5.51,12.3,12.3,12.3h33.41c6.79,0,12.3-5.51,12.3-12.3v-33.41c0-6.79-5.51-12.3-12.3-12.3h0Z"/><rect class="cls-10" x="105.81" y="214" width="56" height="56" rx="11.3" ry="11.3"/><path class="cls-9" d="m150.51,215c5.68,0,10.3,4.62,10.3,10.3v33.41c0,5.68-4.62,10.3-10.3,10.3h-33.41c-5.68,0-10.3-4.62-10.3-10.3v-33.41c0-5.68,4.62-10.3,10.3-10.3h33.41m0-2h-33.41c-6.79,0-12.3,5.51-12.3,12.3v33.41c0,6.79,5.51,12.3,12.3,12.3h33.41c6.79,0,12.3-5.51,12.3-12.3v-33.41c0-6.79-5.51-12.3-12.3-12.3h0Z"/><rect class="cls-10" x="176.58" y="214" width="56" height="56" rx="11.3" ry="11.3"/><path class="cls-9" d="m221.28,215c5.68,0,10.3,4.62,10.3,10.3v33.41c0,5.68-4.62,10.3-10.3,10.3h-33.41c-5.68,0-10.3-4.62-10.3-10.3v-33.41c0-5.68,4.62-10.3,10.3-10.3h33.41m0-2h-33.41c-6.79,0-12.3,5.51-12.3,12.3v33.41c0,6.79,5.51,12.3,12.3,12.3h33.41c6.79,0,12.3-5.51,12.3-12.3v-33.41c0-6.79-5.51-12.3-12.3-12.3h0Z"/><rect class="cls-10" x="247.35" y="214" width="56" height="56" rx="11.3" ry="11.3"/><path class="cls-9" d="m292.05,215c5.68,0,10.3,4.62,10.3,10.3v33.41c0,5.68-4.62,10.3-10.3,10.3h-33.41c-5.68,0-10.3-4.62-10.3-10.3v-33.41c0-5.68,4.62-10.3,10.3-10.3h33.41m0-2h-33.41c-6.79,0-12.3,5.51-12.3,12.3v33.41c0,6.79,5.51,12.3,12.3,12.3h33.41c6.79,0,12.3-5.51,12.3-12.3v-33.41c0-6.79-5.51-12.3-12.3-12.3h0Z"/><rect class="cls-10" x="318.12" y="214" width="56" height="56" rx="11.3" ry="11.3"/><path class="cls-9" d="m362.82,215c5.68,0,10.3,4.62,10.3,10.3v33.41c0,5.68-4.62,10.3-10.3,10.3h-33.41c-5.68,0-10.3-4.62-10.3-10.3v-33.41c0-5.68,4.62-10.3,10.3-10.3h33.41m0-2h-33.41c-6.79,0-12.3,5.51-12.3,12.3v33.41c0,6.79,5.51,12.3,12.3,12.3h33.41c6.79,0,12.3-5.51,12.3-12.3v-33.41c0-6.79-5.51-12.3-12.3-12.3h0Z"/><rect class="cls-10" x="388.88" y="214" width="56" height="56" rx="11.3" ry="11.3"/><path class="cls-9" d="m433.59,215c5.68,0,10.3,4.62,10.3,10.3v33.41c0,5.68-4.62,10.3-10.3,10.3h-33.41c-5.68,0-10.3-4.62-10.3-10.3v-33.41c0-5.68,4.62-10.3,10.3-10.3h33.41m0-2h-33.41c-6.79,0-12.3,5.51-12.3,12.3v33.41c0,6.79,5.51,12.3,12.3,12.3h33.41c6.79,0,12.3-5.51,12.3-12.3v-33.41c0-6.79-5.51-12.3-12.3-12.3h0Z"/><rect class="cls-14" x="459.65" y="214" width="56" height="56" rx="11.3" ry="11.3"/><path class="cls-9" d="m504.36,215c5.68,0,10.3,4.62,10.3,10.3v33.41c0,5.68-4.62,10.3-10.3,10.3h-33.41c-5.68,0-10.3-4.62-10.3-10.3v-33.41c0-5.68,4.62-10.3,10.3-10.3h33.41m0-2h-33.41c-6.79,0-12.3,5.51-12.3,12.3v33.41c0,6.79,5.51,12.3,12.3,12.3h33.41c6.79,0,12.3-5.51,12.3-12.3v-33.41c0-6.79-5.51-12.3-12.3-12.3h0Z"/><path class="cls-14" d="m541.72,214h33.41c6.24,0,11.3,5.06,11.3,11.3v33.4c0,6.24-5.06,11.3-11.3,11.3h-33.4c-6.24,0-11.3-5.06-11.3-11.3v-33.41c0-6.23,5.06-11.3,11.3-11.3Z"/><path class="cls-9" d="m575.13,215c5.68,0,10.3,4.62,10.3,10.3v33.41c0,5.68-4.62,10.3-10.3,10.3h-33.41c-5.68,0-10.3-4.62-10.3-10.3v-33.41c0-5.68,4.62-10.3,10.3-10.3h33.41m0-2h-33.41c-6.79,0-12.3,5.51-12.3,12.3v33.41c0,6.79,5.51,12.3,12.3,12.3h33.41c6.79,0,12.3-5.51,12.3-12.3v-33.41c0-6.79-5.51-12.3-12.3-12.3h0Z"/><rect class="cls-14" x="601.19" y="214" width="56" height="56" rx="11.3" ry="11.3"/><path class="cls-9" d="m645.9,215c5.68,0,10.3,4.62,10.3,10.3v33.41c0,5.68-4.62,10.3-10.3,10.3h-33.41c-5.68,0-10.3-4.62-10.3-10.3v-33.41c0-5.68,4.62-10.3,10.3-10.3h33.41m0-2h-33.41c-6.79,0-12.3,5.51-12.3,12.3v33.41c0,6.79,5.51,12.3,12.3,12.3h33.41c6.79,0,12.3-5.51,12.3-12.3v-33.41c0-6.79-5.51-12.3-12.3-12.3h0Z"/><rect class="cls-14" x="671.96" y="214" width="56" height="56" rx="11.3" ry="11.3"/><path class="cls-9" d="m716.67,215c5.68,0,10.3,4.62,10.3,10.3v33.41c0,5.68-4.62,10.3-10.3,10.3h-33.41c-5.68,0-10.3-4.62-10.3-10.3v-33.41c0-5.68,4.62-10.3,10.3-10.3h33.41m0-2h-33.41c-6.79,0-12.3,5.51-12.3,12.3v33.41c0,6.79,5.51,12.3,12.3,12.3h33.41c6.79,0,12.3-5.51,12.3-12.3v-33.41c0-6.79-5.51-12.3-12.3-12.3h0Z"/><rect class="cls-14" x="743.5" y="214" width="56" height="56" rx="11.3" ry="11.3"/><path class="cls-9" d="m788.2,215c5.68,0,10.3,4.62,10.3,10.3v33.41c0,5.68-4.62,10.3-10.3,10.3h-33.41c-5.68,0-10.3-4.62-10.3-10.3v-33.41c0-5.68,4.62-10.3,10.3-10.3h33.41m0-2h-33.41c-6.79,0-12.3,5.51-12.3,12.3v33.41c0,6.79,5.51,12.3,12.3,12.3h33.41c6.79,0,12.3-5.51,12.3-12.3v-33.41c0-6.79-5.51-12.3-12.3-12.3h0Z"/><rect class="cls-10" x="814.19" y="214" width="56" height="56" rx="11.3" ry="11.3"/><path class="cls-9" d="m858.9,215c5.68,0,10.3,4.62,10.3,10.3v33.41c0,5.68-4.62,10.3-10.3,10.3h-33.41c-5.68,0-10.3-4.62-10.3-10.3v-33.41c0-5.68,4.62-10.3,10.3-10.3h33.41m0-2h-33.41c-6.79,0-12.3,5.51-12.3,12.3v33.41c0,6.79,5.51,12.3,12.3,12.3h33.41c6.79,0,12.3-5.51,12.3-12.3v-33.41c0-6.79-5.51-12.3-12.3-12.3h0Z"/><rect class="cls-10" x="939.5" y="143" width="56" height="56" rx="11.3" ry="11.3"/><path class="cls-9" d="m984.2,144c5.68,0,10.3,4.62,10.3,10.3v33.41c0,5.68-4.62,10.3-10.3,10.3h-33.41c-5.68,0-10.3-4.62-10.3-10.3v-33.41c0-5.68,4.62-10.3,10.3-10.3h33.41m0-2h-33.41c-6.79,0-12.3,5.51-12.3,12.3v33.41c0,6.79,5.51,12.3,12.3,12.3h33.41c6.79,0,12.3-5.51,12.3-12.3v-33.41c0-6.79-5.51-12.3-12.3-12.3h0Z"/><rect class="cls-10" x="8.5" y="72" width="56" height="56" rx="11.3" ry="11.3"/><path class="cls-9" d="m53.2,73c5.68,0,10.3,4.62,10.3,10.3v33.41c0,5.68-4.62,10.3-10.3,10.3H19.8c-5.68,0-10.3-4.62-10.3-10.3v-33.41c0-5.68,4.62-10.3,10.3-10.3h33.41m0-2H19.8c-6.79,0-12.3,5.51-12.3,12.3v33.41c0,6.79,5.51,12.3,12.3,12.3h33.41c6.79,0,12.3-5.51,12.3-12.3v-33.41c0-6.79-5.51-12.3-12.3-12.3h0Z"/><rect class="cls-10" x="71.81" y="72" width="56" height="56" rx="11.3" ry="11.3"/><path class="cls-9" d="m116.51,73c5.68,0,10.3,4.62,10.3,10.3v33.41c0,5.68-4.62,10.3-10.3,10.3h-33.41c-5.68,0-10.3-4.62-10.3-10.3v-33.41c0-5.68,4.62-10.3,10.3-10.3h33.41m0-2h-33.41c-6.79,0-12.3,5.51-12.3,12.3v33.41c0,6.79,5.51,12.3,12.3,12.3h33.41c6.79,0,12.3-5.51,12.3-12.3v-33.41c0-6.79-5.51-12.3-12.3-12.3h0Z"/><rect class="cls-10" x="142.58" y="72" width="56" height="56" rx="11.3" ry="11.3"/><path class="cls-9" d="m187.28,73c5.68,0,10.3,4.62,10.3,10.3v33.41c0,5.68-4.62,10.3-10.3,10.3h-33.41c-5.68,0-10.3-4.62-10.3-10.3v-33.41c0-5.68,4.62-10.3,10.3-10.3h33.41m0-2h-33.41c-6.79,0-12.3,5.51-12.3,12.3v33.41c0,6.79,5.51,12.3,12.3,12.3h33.41c6.79,0,12.3-5.51,12.3-12.3v-33.41c0-6.79-5.51-12.3-12.3-12.3h0Z"/><rect class="cls-10" x="213.35" y="72" width="56" height="56" rx="11.3" ry="11.3"/><path class="cls-9" d="m258.05,73c5.68,0,10.3,4.62,10.3,10.3v33.41c0,5.68-4.62,10.3-10.3,10.3h-33.41c-5.68,0-10.3-4.62-10.3-10.3v-33.41c0-5.68,4.62-10.3,10.3-10.3h33.41m0-2h-33.41c-6.79,0-12.3,5.51-12.3,12.3v33.41c0,6.79,5.51,12.3,12.3,12.3h33.41c6.79,0,12.3-5.51,12.3-12.3v-33.41c0-6.79-5.51-12.3-12.3-12.3h0Z"/><rect class="cls-10" x="284.12" y="72" width="56" height="56" rx="11.3" ry="11.3"/><path class="cls-9" d="m328.82,73c5.68,0,10.3,4.62,10.3,10.3v33.41c0,5.68-4.62,10.3-10.3,10.3h-33.41c-5.68,0-10.3-4.62-10.3-10.3v-33.41c0-5.68,4.62-10.3,10.3-10.3h33.41m0-2h-33.41c-6.79,0-12.3,5.51-12.3,12.3v33.41c0,6.79,5.51,12.3,12.3,12.3h33.41c6.79,0,12.3-5.51,12.3-12.3v-33.41c0-6.79-5.51-12.3-12.3-12.3h0Z"/><rect class="cls-10" x="354.88" y="72" width="56" height="56" rx="11.3" ry="11.3"/><path class="cls-9" d="m399.59,73c5.68,0,10.3,4.62,10.3,10.3v33.41c0,5.68-4.62,10.3-10.3,10.3h-33.41c-5.68,0-10.3-4.62-10.3-10.3v-33.41c0-5.68,4.62-10.3,10.3-10.3h33.41m0-2h-33.41c-6.79,0-12.3,5.51-12.3,12.3v33.41c0,6.79,5.51,12.3,12.3,12.3h33.41c6.79,0,12.3-5.51,12.3-12.3v-33.41c0-6.79-5.51-12.3-12.3-12.3h0Z"/><rect class="cls-15" x="425.65" y="72" width="56" height="56" rx="11.3" ry="11.3"/><path class="cls-9" d="m470.36,73c5.68,0,10.3,4.62,10.3,10.3v33.41c0,5.68-4.62,10.3-10.3,10.3h-33.41c-5.68,0-10.3-4.62-10.3-10.3v-33.41c0-5.68,4.62-10.3,10.3-10.3h33.41m0-2h-33.41c-6.79,0-12.3,5.51-12.3,12.3v33.41c0,6.79,5.51,12.3,12.3,12.3h33.41c6.79,0,12.3-5.51,12.3-12.3v-33.41c0-6.79-5.51-12.3-12.3-12.3h0Z"/><path class="cls-15" d="m507.72,72h33.41c6.24,0,11.3,5.06,11.3,11.3v33.4c0,6.24-5.06,11.3-11.3,11.3h-33.41c-6.24,0-11.3-5.06-11.3-11.3v-33.41c0-6.24,5.06-11.3,11.3-11.3Z"/><path class="cls-9" d="m541.13,73c5.68,0,10.3,4.62,10.3,10.3v33.41c0,5.68-4.62,10.3-10.3,10.3h-33.41c-5.68,0-10.3-4.62-10.3-10.3v-33.41c0-5.68,4.62-10.3,10.3-10.3h33.41m0-2h-33.41c-6.79,0-12.3,5.51-12.3,12.3v33.41c0,6.79,5.51,12.3,12.3,12.3h33.41c6.79,0,12.3-5.51,12.3-12.3v-33.41c0-6.79-5.51-12.3-12.3-12.3h0Z"/><rect class="cls-15" x="567.19" y="72" width="56" height="56" rx="11.3" ry="11.3"/><path class="cls-9" d="m611.9,73c5.68,0,10.3,4.62,10.3,10.3v33.41c0,5.68-4.62,10.3-10.3,10.3h-33.41c-5.68,0-10.3-4.62-10.3-10.3v-33.41c0-5.68,4.62-10.3,10.3-10.3h33.41m0-2h-33.41c-6.79,0-12.3,5.51-12.3,12.3v33.41c0,6.79,5.51,12.3,12.3,12.3h33.41c6.79,0,12.3-5.51,12.3-12.3v-33.41c0-6.79-5.51-12.3-12.3-12.3h0Z"/><path class="cls-15" d="m649.26,72h33.4c6.24,0,11.3,5.06,11.3,11.3v33.41c0,6.23-5.06,11.3-11.3,11.3h-33.41c-6.24,0-11.3-5.06-11.3-11.3v-33.4c0-6.24,5.06-11.3,11.3-11.3Z"/><path class="cls-9" d="m682.67,73c5.68,0,10.3,4.62,10.3,10.3v33.41c0,5.68-4.62,10.3-10.3,10.3h-33.41c-5.68,0-10.3-4.62-10.3-10.3v-33.41c0-5.68,4.62-10.3,10.3-10.3h33.41m0-2h-33.41c-6.79,0-12.3,5.51-12.3,12.3v33.41c0,6.79,5.51,12.3,12.3,12.3h33.41c6.79,0,12.3-5.51,12.3-12.3v-33.41c0-6.79-5.51-12.3-12.3-12.3h0Z"/><rect class="cls-15" x="709.5" y="72" width="56" height="56" rx="11.3" ry="11.3"/><path class="cls-9" d="m754.2,73c5.68,0,10.3,4.62,10.3,10.3v33.41c0,5.68-4.62,10.3-10.3,10.3h-33.41c-5.68,0-10.3-4.62-10.3-10.3v-33.41c0-5.68,4.62-10.3,10.3-10.3h33.41m0-2h-33.41c-6.79,0-12.3,5.51-12.3,12.3v33.41c0,6.79,5.51,12.3,12.3,12.3h33.41c6.79,0,12.3-5.51,12.3-12.3v-33.41c0-6.79-5.51-12.3-12.3-12.3h0Z"/><rect class="cls-15" x="780.19" y="72" width="56" height="56" rx="11.3" ry="11.3"/><path class="cls-9" d="m824.9,73c5.68,0,10.3,4.62,10.3,10.3v33.41c0,5.68-4.62,10.3-10.3,10.3h-33.41c-5.68,0-10.3-4.62-10.3-10.3v-33.41c0-5.68,4.62-10.3,10.3-10.3h33.41m0-2h-33.41c-6.79,0-12.3,5.51-12.3,12.3v33.41c0,6.79,5.51,12.3,12.3,12.3h33.41c6.79,0,12.3-5.51,12.3-12.3v-33.41c0-6.79-5.51-12.3-12.3-12.3h0Z"/><rect class="cls-15" x="849.5" y="72" width="56" height="56" rx="11.3" ry="11.3"/><path class="cls-9" d="m894.2,73c5.68,0,10.3,4.62,10.3,10.3v33.41c0,5.68-4.62,10.3-10.3,10.3h-33.41c-5.68,0-10.3-4.62-10.3-10.3v-33.41c0-5.68,4.62-10.3,10.3-10.3h33.41m0-2h-33.41c-6.79,0-12.3,5.51-12.3,12.3v33.41c0,6.79,5.51,12.3,12.3,12.3h33.41c6.79,0,12.3-5.51,12.3-12.3v-33.41c0-6.79-5.51-12.3-12.3-12.3h0Z"/><rect class="cls-10" x="916.5" y="72" width="79" height="56" rx="11.3" ry="11.3"/><path class="cls-9" d="m984.2,73c5.68,0,10.3,4.62,10.3,10.3v33.41c0,5.68-4.62,10.3-10.3,10.3h-56.41c-5.68,0-10.3-4.62-10.3-10.3v-33.41c0-5.68,4.62-10.3,10.3-10.3h56.41m0-2h-56.41c-6.79,0-12.3,5.51-12.3,12.3v33.41c0,6.79,5.51,12.3,12.3,12.3h56.41c6.79,0,12.3-5.51,12.3-12.3v-33.41c0-6.79-5.51-12.3-12.3-12.3h0Z"/><rect class="cls-10" x="883.5" y="214" width="112" height="56" rx="11.3" ry="11.3"/><path class="cls-9" d="m984.2,215c5.68,0,10.3,4.62,10.3,10.3v33.41c0,5.68-4.62,10.3-10.3,10.3h-89.41c-5.68,0-10.3-4.62-10.3-10.3v-33.41c0-5.68,4.62-10.3,10.3-10.3h89.41m0-2h-89.41c-6.79,0-12.3,5.51-12.3,12.3v33.41c0,6.79,5.51,12.3,12.3,12.3h89.41c6.79,0,12.3-5.51,12.3-12.3v-33.41c0-6.79-5.51-12.3-12.3-12.3h0Z"/><rect class="cls-10" x="803.5" y="369" width="56" height="56" rx="11.3" ry="11.3"/><path class="cls-9" d="m848.2,370c5.68,0,10.3,4.62,10.3,10.3v33.41c0,5.68-4.62,10.3-10.3,10.3h-33.41c-5.68,0-10.3-4.62-10.3-10.3v-33.41c0-5.68,4.62-10.3,10.3-10.3h33.41m0-2h-33.41c-6.79,0-12.3,5.51-12.3,12.3v33.41c0,6.79,5.51,12.3,12.3,12.3h33.41c6.79,0,12.3-5.51,12.3-12.3v-33.41c0-6.79-5.51-12.3-12.3-12.3h0Z"/><rect class="cls-10" x="736.5" y="369" width="56" height="56" rx="11.3" ry="11.3"/><path class="cls-9" d="m781.2,370c5.68,0,10.3,4.62,10.3,10.3v33.41c0,5.68-4.62,10.3-10.3,10.3h-33.41c-5.68,0-10.3-4.62-10.3-10.3v-33.41c0-5.68,4.62-10.3,10.3-10.3h33.41m0-2h-33.41c-6.79,0-12.3,5.51-12.3,12.3v33.41c0,6.79,5.51,12.3,12.3,12.3h33.41c6.79,0,12.3-5.51,12.3-12.3v-33.41c0-6.79-5.51-12.3-12.3-12.3h0Z"/><rect class="cls-10" x="870.5" y="369" width="56" height="56" rx="11.3" ry="11.3"/><path class="cls-9" d="m915.2,370c5.68,0,10.3,4.62,10.3,10.3v33.41c0,5.68-4.62,10.3-10.3,10.3h-33.41c-5.68,0-10.3-4.62-10.3-10.3v-33.41c0-5.68,4.62-10.3,10.3-10.3h33.41m0-2h-33.41c-6.79,0-12.3,5.51-12.3,12.3v33.41c0,6.79,5.51,12.3,12.3,12.3h33.41c6.79,0,12.3-5.51,12.3-12.3v-33.41c0-6.79-5.51-12.3-12.3-12.3h0Z"/><path class="cls-10" d="m946.8,425c-6.23,0-11.3-5.07-11.3-11.3v-33.41c0-6.23,5.07-11.3,11.3-11.3h37.41c6.23,0,11.3,5.07,11.3,11.3v17.97c0,14.74-11.99,26.73-26.73,26.73h-21.97Z"/><path class="cls-9" d="m984.2,370c5.68,0,10.3,4.62,10.3,10.3v17.97c0,14.19-11.54,25.73-25.73,25.73h-21.97c-5.68,0-10.3-4.62-10.3-10.3v-33.41c0-5.68,4.62-10.3,10.3-10.3h37.41m0-2h-37.41c-6.79,0-12.3,5.51-12.3,12.3v33.41c0,6.79,5.51,12.3,12.3,12.3h21.97c15.32,0,27.73-12.42,27.73-27.73v-17.97c0-6.79-5.51-12.3-12.3-12.3h0Z"/><rect class="cls-10" x="203.5" y="369" width="75" height="56" rx="11.3" ry="11.3"/><path class="cls-9" d="m267.2,370c5.68,0,10.3,4.62,10.3,10.3v33.41c0,5.68-4.62,10.3-10.3,10.3h-52.41c-5.68,0-10.3-4.62-10.3-10.3v-33.41c0-5.68,4.62-10.3,10.3-10.3h52.41m0-2h-52.41c-6.79,0-12.3,5.51-12.3,12.3v33.41c0,6.79,5.51,12.3,12.3,12.3h52.41c6.79,0,12.3-5.51,12.3-12.3v-33.41c0-6.79-5.51-12.3-12.3-12.3h0Z"/><rect class="cls-10" x="136.5" y="369" width="56" height="56" rx="11.3" ry="11.3"/><path class="cls-9" d="m181.2,370c5.68,0,10.3,4.62,10.3,10.3v33.41c0,5.68-4.62,10.3-10.3,10.3h-33.41c-5.68,0-10.3-4.62-10.3-10.3v-33.41c0-5.68,4.62-10.3,10.3-10.3h33.41m0-2h-33.41c-6.79,0-12.3,5.51-12.3,12.3v33.41c0,6.79,5.51,12.3,12.3,12.3h33.41c6.79,0,12.3-5.51,12.3-12.3v-33.41c0-6.79-5.51-12.3-12.3-12.3h0Z"/><rect class="cls-10" x="70.5" y="369" width="56" height="56" rx="11.3" ry="11.3"/><path class="cls-9" d="m115.2,370c5.68,0,10.3,4.62,10.3,10.3v33.41c0,5.68-4.62,10.3-10.3,10.3h-33.41c-5.68,0-10.3-4.62-10.3-10.3v-33.41c0-5.68,4.62-10.3,10.3-10.3h33.41m0-2h-33.41c-6.79,0-12.3,5.51-12.3,12.3v33.41c0,6.79,5.51,12.3,12.3,12.3h33.41c6.79,0,12.3-5.51,12.3-12.3v-33.41c0-6.79-5.51-12.3-12.3-12.3h0Z"/><path class="cls-10" d="m37.23,425c-14.74,0-26.73-11.99-26.73-26.73v-17.97c0-6.23,5.07-11.3,11.3-11.3h30.41c6.23,0,11.3,5.07,11.3,11.3v33.41c0,6.23-5.07,11.3-11.3,11.3h-14.97Z"/><path class="cls-9" d="m52.2,370c5.68,0,10.3,4.62,10.3,10.3v33.41c0,5.68-4.62,10.3-10.3,10.3h-14.97c-14.19,0-25.73-11.54-25.73-25.73v-17.97c0-5.68,4.62-10.3,10.3-10.3h30.41m0-2h-30.41c-6.79,0-12.3,5.51-12.3,12.3v17.97c0,15.32,12.42,27.73,27.73,27.73h14.97c6.79,0,12.3-5.51,12.3-12.3v-33.41c0-6.79-5.51-12.3-12.3-12.3h0Z"/><text class="cls-2" transform="translate(328.16 45.94)"><tspan x="0" y="0">THE </tspan><tspan class="cls-4" x="58.65" y="0">D</tspan><tspan x="76.83" y="0">EVE</tspan><tspan class="cls-7" x="132.03" y="0">L</tspan><tspan class="cls-3" x="146.31" y="0">O</tspan><tspan x="166.26" y="0">PERS </tspan><tspan class="cls-8" x="240.12" y="0">S</tspan><tspan class="cls-5" x="255.63" y="0">W</tspan><tspan class="cls-3" x="283.5" y="0">O</tspan><tspan x="303.45" y="0">RD</tspan></text><line class="cls-6" x1="324.5" y1="33" x2="7.5" y2="33"/><line class="cls-6" x1="1000.5" y1="33" x2="674.5" y2="33"/><text class="cls-1" transform="translate(109.45 182.99)"><tspan x="0" y="0">D</tspan></text><text class="cls-1" transform="translate(186.14 182.93)"><tspan x="0" y="0">I</tspan></text><text class="cls-1" transform="translate(248.14 182.93)"><tspan x="0" y="0">M</tspan></text><text class="cls-1" transform="translate(322.14 182.93)"><tspan x="0" y="0">A</tspan></text><text class="cls-1" transform="translate(479.45 252.99)"><tspan x="0" y="0">S</tspan></text><text class="cls-1" transform="translate(551.14 252.93)"><tspan x="0" y="0">P</tspan></text><text class="cls-1" transform="translate(620.14 252.93)"><tspan x="0" y="0">L</tspan></text><text class="cls-1" transform="translate(697.14 252.93)"><tspan x="0" y="0">I</tspan></text><text class="cls-1" transform="translate(764.14 252.93)"><tspan x="0" y="0">T</tspan></text><text class="cls-1" transform="translate(443.45 110.99)"><tspan x="0" y="0">A</tspan></text><text class="cls-1" transform="translate(514.14 111.93)"><tspan x="0" y="0">R</tspan></text><text class="cls-1" transform="translate(584.14 111.93)"><tspan x="0" y="0">M</tspan></text><text class="cls-1" transform="translate(656.14 111.93)"><tspan x="0" y="0">O</tspan></text><text class="cls-1" transform="translate(731.14 111.93)"><tspan x="0" y="0">I</tspan></text><text class="cls-1" transform="translate(798.14 110.93)"><tspan x="0" y="0">R</tspan></text><text class="cls-1" transform="translate(869.14 111.93)"><tspan x="0" y="0">E</tspan></text><text class="cls-1" transform="translate(175.45 331.99)"><tspan x="0" y="0">P</tspan></text><text class="cls-1" transform="translate(246.14 332.93)"><tspan x="0" y="0">O</tspan></text><text class="cls-1" transform="translate(316.14 332.93)"><tspan x="0" y="0">R</tspan></text><text class="cls-1" transform="translate(388.14 332.93)"><tspan x="0" y="0">T</tspan></text><text class="cls-1" transform="translate(459.14 332.93)"><tspan x="0" y="0">F</tspan></text><text class="cls-1" transform="translate(527.14 332.93)"><tspan x="0" y="0">O</tspan></text><text class="cls-1" transform="translate(740.14 332.93)"><tspan x="0" y="0">O</tspan></text><text class="cls-1" transform="translate(600.14 332.93)"><tspan x="0" y="0">L</tspan></text><text class="cls-1" transform="translate(675.14 332.93)"><tspan x="0" y="0">I</tspan></text></svg>